# xmcd CD database file
#
# Track frame offsets:
#	150
#	14456
#	29983
#	41579
#	55060
#	73295
#	88655
#	105362
#	125054
#	141006
#	161988
#	178611
#	199896
#	214800
#	225873
#	243053
#	256058
#	270438
#	289185
#	306407
#
# Disc length: 4269 seconds
#
# Revision: 0
# Processed by: cddbd v1.5.2PL0 Copyright (c) Steve Scherf et al.
# Submitted via: CDex 1.70beta2
#
DISCID=2510ab14
DTITLE=Charleston Chasers - Smilin' Skies
DYEAR=2000
DGENRE=Jazz
TTITLE0=When The Morning Glories Wake Up
TTITLE1=Clap Hands!Here Comes Charley
TTITLE2=I Get The Blues When It Rains
TTITLE3=Jim Dandy
TTITLE4=The Things That Were Made For Love
TTITLE5=Glad Rag Doll
TTITLE6=Black Bottom
TTITLE7=Louisville Lady
TTITLE8=When My Sugar Walks Down The Street
TTITLE9=Anything For You
TTITLE10=That's Georgia
TTITLE11=Lazybones
TTITLE12=Jig Walk
TTITLE13=Oh,It Looks Like Rain
TTITLE14=Swamp Blues
TTITLE15=The Stampede
TTITLE16=Low Down On The Bayou
TTITLE17=Sweet Like This
TTITLE18=Out Where The Blues Begin
TTITLE19=Smilin' Skies
EXTD=YEAR: 2000
EXTT0=
EXTT1=
EXTT2=
EXTT3=
EXTT4=
EXTT5=
EXTT6=
EXTT7=
EXTT8=
EXTT9=
EXTT10=
EXTT11=
EXTT12=
EXTT13=
EXTT14=
EXTT15=
EXTT16=
EXTT17=
EXTT18=
EXTT19=
PLAYORDER=
